RobotoAvar2-XTFI741.ufo
<glyph name="numbersign" format="2">
  <advance width="1841"/>
  <unicode hex="0023"/>
  <outline>
    <contour>
      <point x="216" y="-20" type="line"/>
      <point x="653" y="1501" type="line"/>
      <point x="797" y="1501" type="line"/>
      <point x="360" y="-20" type="line"/>
    </contour>
    <contour>
      <point x="1019" y="-20" type="line"/>
      <point x="1456" y="1501" type="line"/>
      <point x="1600" y="1501" type="line"/>
      <point x="1163" y="-20" type="line"/>
    </contour>
    <contour>
      <point x="64" y="404" type="line"/>
      <point x="64" y="542" type="line"/>
      <point x="1702" y="542" type="line"/>
      <point x="1702" y="404" type="line"/>
    </contour>
    <contour>
      <point x="115" y="939" type="line"/>
      <point x="115" y="1077" type="line"/>
      <point x="1752" y="1077" type="line"/>
      <point x="1752" y="939" type="line"/>
    </contour>
  </outline>
</glyph>
<glyph name="zero" format="2">
  <advance width="1765"/>
  <unicode hex="0030"/>
  <outline>
    <contour>
      <point x="110" y="671" type="qcurve" smooth="yes"/>
      <point x="110" y="845" type="line" smooth="yes"/>
      <point x="110" y="1133"/>
      <point x="521" y="1486"/>
      <point x="881" y="1486" type="qcurve" smooth="yes"/>
      <point x="1239" y="1486"/>
      <point x="1655" y="1133"/>
      <point x="1655" y="845" type="qcurve" smooth="yes"/>
      <point x="1655" y="671" type="line" smooth="yes"/>
      <point x="1655" y="356"/>
      <point x="1239" y="-30"/>
      <point x="881" y="-30" type="qcurve" smooth="yes"/>
      <point x="521" y="-30"/>
      <point x="110" y="356"/>
    </contour>
    <contour>
      <point x="304" y="652" type="line" smooth="yes"/>
      <point x="304" y="424"/>
      <point x="601" y="128"/>
      <point x="881" y="128" type="qcurve" smooth="yes"/>
      <point x="1161" y="128"/>
      <point x="1461" y="424"/>
      <point x="1461" y="652" type="qcurve" smooth="yes"/>
      <point x="1461" y="864" type="line" smooth="yes"/>
      <point x="1461" y="1066"/>
      <point x="1161" y="1328"/>
      <point x="881" y="1328" type="qcurve" smooth="yes"/>
      <point x="601" y="1328"/>
      <point x="304" y="1066"/>
      <point x="304" y="864" type="qcurve" smooth="yes"/>
    </contour>
  </outline>
</glyph>
<glyph name="five" format="2">
  <advance width="1765"/>
  <unicode hex="0035"/>
  <outline>
    <contour>
      <point x="100" y="365" type="qcurve" smooth="yes"/>
      <point x="100" y="375" type="line"/>
      <point x="285" y="375" type="line"/>
      <point x="285" y="365" type="line" smooth="yes"/>
      <point x="285" y="255"/>
      <point x="605" y="128"/>
      <point x="884" y="128" type="qcurve" smooth="yes"/>
      <point x="1212" y="128"/>
      <point x="1507" y="305"/>
      <point x="1507" y="465" type="qcurve" smooth="yes"/>
      <point x="1507" y="625"/>
      <point x="1212" y="793"/>
      <point x="884" y="793" type="qcurve" smooth="yes"/>
      <point x="660" y="793"/>
      <point x="365" y="728"/>
      <point x="282" y="668" type="qcurve"/>
      <point x="150" y="730" type="line"/>
      <point x="224" y="1456" type="line"/>
      <point x="1603" y="1456" type="line"/>
      <point x="1603" y="1286" type="line"/>
      <point x="380" y="1286" type="line"/>
      <point x="337" y="876" type="line"/>
      <point x="404" y="906"/>
      <point x="700" y="952"/>
      <point x="898" y="952" type="qcurve" smooth="yes"/>
      <point x="1305" y="952"/>
      <point x="1697" y="695"/>
      <point x="1697" y="465" type="qcurve" smooth="yes"/>
      <point x="1697" y="235"/>
      <point x="1293" y="-30"/>
      <point x="884" y="-30" type="qcurve" smooth="yes"/>
      <point x="518" y="-30"/>
      <point x="100" y="195"/>
    </contour>
  </outline>
</glyph>
<glyph name="seven" format="2">
  <advance width="1635"/>
  <unicode hex="0037"/>
  <outline>
    <contour>
      <point x="274" y="0" type="line"/>
      <point x="1282" y="1295" type="line"/>
      <point x="78" y="1295" type="line"/>
      <point x="78" y="1456" type="line"/>
      <point x="1531" y="1456" type="line"/>
      <point x="1531" y="1352" type="line"/>
      <point x="490" y="0" type="line"/>
    </contour>
  </outline>
</glyph>
<glyph name="eight" format="2">
  <advance width="1785"/>
  <unicode hex="0038"/>
  <outline>
    <contour>
      <point x="104" y="386" type="qcurve" smooth="yes"/>
      <point x="104" y="516"/>
      <point x="340" y="701"/>
      <point x="518" y="746" type="qcurve"/>
      <point x="518" y="750" type="line"/>
      <point x="372" y="793"/>
      <point x="160" y="967"/>
      <point x="160" y="1087" type="qcurve" smooth="yes"/>
      <point x="160" y="1267"/>
      <point x="574" y="1486"/>
      <point x="895" y="1486" type="qcurve" smooth="yes"/>
      <point x="1217" y="1486"/>
      <point x="1625" y="1269"/>
      <point x="1625" y="1087" type="qcurve" smooth="yes"/>
      <point x="1625" y="967"/>
      <point x="1410" y="793"/>
      <point x="1265" y="750" type="qcurve"/>
      <point x="1265" y="746" type="line"/>
      <point x="1442" y="701"/>
      <point x="1681" y="516"/>
      <point x="1681" y="386" type="qcurve" smooth="yes"/>
      <point x="1681" y="188"/>
      <point x="1242" y="-30"/>
      <point x="895" y="-30" type="qcurve" smooth="yes"/>
      <point x="549" y="-30"/>
      <point x="104" y="188"/>
    </contour>
    <contour>
      <point x="292" y="396" type="qcurve" smooth="yes"/>
      <point x="292" y="276"/>
      <point x="615" y="128"/>
      <point x="895" y="128" type="qcurve" smooth="yes"/>
      <point x="1175" y="128"/>
      <point x="1493" y="276"/>
      <point x="1493" y="396" type="qcurve" smooth="yes"/>
      <point x="1493" y="516"/>
      <point x="1175" y="666"/>
      <point x="895" y="666" type="qcurve" smooth="yes"/>
      <point x="615" y="666"/>
      <point x="292" y="516"/>
    </contour>
    <contour>
      <point x="350" y="1077" type="qcurve" smooth="yes"/>
      <point x="350" y="967"/>
      <point x="643" y="824"/>
      <point x="895" y="824" type="qcurve" smooth="yes"/>
      <point x="1147" y="824"/>
      <point x="1435" y="967"/>
      <point x="1435" y="1077" type="qcurve" smooth="yes"/>
      <point x="1435" y="1187"/>
      <point x="1147" y="1328"/>
      <point x="895" y="1328" type="qcurve" smooth="yes"/>
      <point x="643" y="1328"/>
      <point x="350" y="1187"/>
    </contour>
  </outline>
</glyph>
<glyph name="nine" format="2">
  <advance width="1765"/>
  <unicode hex="0039"/>
  <outline>
    <contour>
      <point x="40" y="992" type="qcurve" smooth="yes"/>
      <point x="40" y="1212"/>
      <point x="478" y="1486"/>
      <point x="835" y="1486" type="qcurve" smooth="yes"/>
      <point x="1194" y="1486"/>
      <point x="1687" y="1182"/>
      <point x="1687" y="842" type="qcurve" smooth="yes"/>
      <point x="1687" y="812" type="line" smooth="yes"/>
      <point x="1687" y="432"/>
      <point x="1056" y="0"/>
      <point x="290" y="0" type="qcurve" smooth="yes"/>
      <point x="265" y="0" type="line"/>
      <point x="265" y="158" type="line"/>
      <point x="290" y="158" type="line" smooth="yes"/>
      <point x="943" y="158"/>
      <point x="1499" y="452"/>
      <point x="1499" y="802" type="qcurve" smooth="yes"/>
      <point x="1499" y="852" type="line" smooth="yes"/>
      <point x="1499" y="1112"/>
      <point x="1124" y="1328"/>
      <point x="833" y="1328" type="qcurve" smooth="yes"/>
      <point x="541" y="1328"/>
      <point x="230" y="1152"/>
      <point x="230" y="992" type="qcurve" smooth="yes"/>
      <point x="230" y="832"/>
      <point x="541" y="658"/>
      <point x="833" y="658" type="qcurve" smooth="yes"/>
      <point x="1111" y="658"/>
      <point x="1505" y="832"/>
      <point x="1505" y="992" type="qcurve"/>
      <point x="1575" y="992" type="line"/>
      <point x="1575" y="772"/>
      <point x="1132" y="500"/>
      <point x="787" y="500" type="qcurve" smooth="yes"/>
      <point x="441" y="500"/>
      <point x="40" y="772"/>
    </contour>
  </outline>
</glyph>
<glyph name="twosuperior" format="2">
  <advance width="1115"/>
  <unicode hex="00B2"/>
  <outline>
    <contour>
      <point x="85" y="697" type="line"/>
      <point x="85" y="805" type="line"/>
      <point x="566" y="1068" type="line" smooth="yes"/>
      <point x="718" y="1151"/>
      <point x="820" y="1227"/>
      <point x="820" y="1249" type="qcurve" smooth="yes"/>
      <point x="820" y="1297"/>
      <point x="691" y="1347"/>
      <point x="546" y="1347" type="qcurve" smooth="yes"/>
      <point x="386" y="1347"/>
      <point x="239" y="1283"/>
      <point x="239" y="1208" type="qcurve" smooth="yes"/>
      <point x="239" y="1198" type="line"/>
      <point x="77" y="1198" type="line"/>
      <point x="77" y="1208" type="line" smooth="yes"/>
      <point x="77" y="1339"/>
      <point x="317" y="1487"/>
      <point x="546" y="1487" type="qcurve" smooth="yes"/>
      <point x="755" y="1487"/>
      <point x="997" y="1359"/>
      <point x="997" y="1251" type="qcurve" smooth="yes"/>
      <point x="997" y="1167"/>
      <point x="765" y="1009"/>
      <point x="665" y="971" type="qcurve" smooth="yes"/>
      <point x="330" y="845" type="line"/>
      <point x="1047" y="845" type="line"/>
      <point x="1047" y="697" type="line"/>
    </contour>
  </outline>
</glyph>
<glyph name="threesuperior" format="2">
  <advance width="1113"/>
  <unicode hex="00B3"/>
  <outline>
    <contour>
      <point x="63" y="920" type="qcurve" smooth="yes"/>
      <point x="63" y="923" type="line"/>
      <point x="220" y="923" type="line"/>
      <point x="220" y="920" type="line" smooth="yes"/>
      <point x="220" y="875"/>
      <point x="405" y="824"/>
      <point x="556" y="824" type="qcurve" smooth="yes"/>
      <point x="715" y="824"/>
      <point x="862" y="876"/>
      <point x="862" y="925" type="qcurve" smooth="yes"/>
      <point x="862" y="978"/>
      <point x="687" y="1028"/>
      <point x="519" y="1029" type="qcurve" smooth="yes"/>
      <point x="326" y="1029" type="line"/>
      <point x="326" y="1151" type="line"/>
      <point x="519" y="1151" type="line" smooth="yes"/>
      <point x="685" y="1151"/>
      <point x="832" y="1207"/>
      <point x="832" y="1255" type="qcurve" smooth="yes"/>
      <point x="832" y="1299"/>
      <point x="708" y="1349"/>
      <point x="549" y="1349" type="qcurve" smooth="yes"/>
      <point x="418" y="1349"/>
      <point x="245" y="1299"/>
      <point x="245" y="1256" type="qcurve" smooth="yes"/>
      <point x="245" y="1252" type="line"/>
      <point x="81" y="1252" type="line"/>
      <point x="81" y="1256" type="line" smooth="yes"/>
      <point x="81" y="1357"/>
      <point x="348" y="1487"/>
      <point x="538" y="1487" type="qcurve" smooth="yes"/>
      <point x="746" y="1487"/>
      <point x="1012" y="1372"/>
      <point x="1012" y="1263" type="qcurve" smooth="yes"/>
      <point x="1012" y="1212"/>
      <point x="903" y="1120"/>
      <point x="723" y="1098" type="qcurve"/>
      <point x="723" y="1097" type="line"/>
      <point x="910" y="1073"/>
      <point x="1029" y="981"/>
      <point x="1029" y="917" type="qcurve" smooth="yes"/>
      <point x="1029" y="807"/>
      <point x="748" y="686"/>
      <point x="540" y="686" type="qcurve" smooth="yes"/>
      <point x="327" y="686"/>
      <point x="63" y="802"/>
    </contour>
  </outline>
</glyph>
<glyph name="onesuperior" format="2">
  <advance width="951"/>
  <unicode hex="00B9"/>
  <outline>
    <contour>
      <point x="123" y="1211" type="line"/>
      <point x="123" y="1370" type="line"/>
      <point x="657" y="1486" type="line"/>
      <point x="701" y="1486" type="line"/>
      <point x="701" y="697" type="line"/>
      <point x="539" y="697" type="line"/>
      <point x="539" y="1288" type="line"/>
    </contour>
  </outline>
</glyph>
<glyph name="commercialMinusSign" format="2">
  <advance width="1740"/>
  <unicode hex="2052"/>
  <outline>
    <contour>
      <point x="69" y="23" type="line"/>
      <point x="1550" y="1482" type="line"/>
      <point x="1680" y="1364" type="line"/>
      <point x="199" y="-95" type="line"/>
    </contour>
    <contour>
      <point x="1305" y="148" type="qcurve" smooth="yes"/>
      <point x="1305" y="213"/>
      <point x="1396" y="310"/>
      <point x="1467" y="310" type="qcurve" smooth="yes"/>
      <point x="1538" y="310"/>
      <point x="1629" y="213"/>
      <point x="1629" y="148" type="qcurve" smooth="yes"/>
      <point x="1629" y="84"/>
      <point x="1538" y="-13"/>
      <point x="1467" y="-13" type="qcurve" smooth="yes"/>
      <point x="1396" y="-13"/>
      <point x="1305" y="84"/>
    </contour>
    <contour>
      <point x="60" y="1304" type="qcurve" smooth="yes"/>
      <point x="60" y="1369"/>
      <point x="151" y="1466"/>
      <point x="222" y="1466" type="qcurve" smooth="yes"/>
      <point x="293" y="1466"/>
      <point x="384" y="1369"/>
      <point x="384" y="1304" type="qcurve" smooth="yes"/>
      <point x="384" y="1240"/>
      <point x="293" y="1143"/>
      <point x="222" y="1143" type="qcurve" smooth="yes"/>
      <point x="151" y="1143"/>
      <point x="60" y="1240"/>
    </contour>
  </outline>
</glyph>
<glyph name="foursuperior" format="2">
  <advance width="1139"/>
  <unicode hex="2074"/>
  <outline>
    <contour>
      <point x="745" y="697" type="line"/>
      <point x="745" y="928" type="line"/>
      <point x="745" y="952" type="line"/>
      <point x="745" y="1332" type="line"/>
      <point x="716" y="1332" type="line"/>
      <point x="285" y="1010" type="line"/>
      <point x="818" y="1010" type="line"/>
      <point x="842" y="1010" type="line"/>
      <point x="1088" y="1010" type="line"/>
      <point x="1088" y="880" type="line"/>
      <point x="54" y="880" type="line"/>
      <point x="54" y="982" type="line"/>
      <point x="713" y="1496" type="line"/>
      <point x="902" y="1496" type="line"/>
      <point x="902" y="697" type="line"/>
    </contour>
  </outline>
</glyph>
<glyph name="lira" format="2">
  <advance width="2211"/>
  <unicode hex="20A4"/>
  <outline>
    <contour>
      <point x="2215" y="0" type="line"/>
      <point x="36" y="0" type="line"/>
      <point x="36" y="160" type="line"/>
      <point x="162" y="160" type="line" smooth="yes"/>
      <point x="314" y="160"/>
      <point x="466" y="343"/>
      <point x="441" y="467" type="qcurve" smooth="yes"/>
      <point x="339" y="976" type="line" smooth="yes"/>
      <point x="294" y="1198"/>
      <point x="639" y="1475"/>
      <point x="1089" y="1475" type="qcurve" smooth="yes"/>
      <point x="1569" y="1475"/>
      <point x="1917" y="1250"/>
      <point x="1908" y="1102" type="qcurve" smooth="yes"/>
      <point x="1908" y="1086" type="line"/>
      <point x="1719" y="1086" type="line"/>
      <point x="1719" y="1103" type="line" smooth="yes"/>
      <point x="1719" y="1188"/>
      <point x="1493" y="1309"/>
      <point x="1094" y="1309" type="qcurve" smooth="yes"/>
      <point x="745" y="1309"/>
      <point x="485" y="1165"/>
      <point x="523" y="978" type="qcurve" smooth="yes"/>
      <point x="618" y="508" type="line" smooth="yes"/>
      <point x="645" y="373"/>
      <point x="580" y="211"/>
      <point x="422" y="166" type="qcurve"/>
      <point x="2215" y="166" type="line"/>
    </contour>
    <contour>
      <point x="1799" y="436" type="line"/>
      <point x="52" y="436" type="line"/>
      <point x="52" y="586" type="line"/>
      <point x="1799" y="586" type="line"/>
    </contour>
    <contour>
      <point x="1799" y="761" type="line"/>
      <point x="52" y="761" type="line"/>
      <point x="52" y="911" type="line"/>
      <point x="1799" y="911" type="line"/>
    </contour>
  </outline>
</glyph>
<glyph name="dong" format="2">
  <advance width="1628"/>
  <unicode hex="20AB"/>
  <outline>
    <contour>
      <point x="15" y="480" type="qcurve" smooth="yes"/>
      <point x="15" y="492" type="line" smooth="yes"/>
      <point x="15" y="714"/>
      <point x="400" y="992"/>
      <point x="715" y="992" type="qcurve" smooth="yes"/>
      <point x="908" y="992"/>
      <point x="1159" y="925"/>
      <point x="1242" y="868" type="qcurve"/>
      <point x="1242" y="1456" type="line"/>
      <point x="1418" y="1456" type="line"/>
      <point x="1418" y="0" type="line"/>
      <point x="1273" y="0" type="line"/>
      <point x="1260" y="137" type="line"/>
      <point x="1249" y="137" type="line"/>
      <point x="1179" y="72"/>
      <point x="908" y="-20"/>
      <point x="748" y="-20" type="qcurve" smooth="yes"/>
      <point x="400" y="-20"/>
      <point x="15" y="251"/>
    </contour>
    <contour>
      <point x="205" y="480" type="line" smooth="yes"/>
      <point x="205" y="310"/>
      <point x="449" y="132"/>
      <point x="692" y="132" type="qcurve" smooth="yes"/>
      <point x="916" y="132"/>
      <point x="1179" y="242"/>
      <point x="1242" y="312" type="qcurve"/>
      <point x="1242" y="680" type="line"/>
      <point x="1179" y="750"/>
      <point x="916" y="840"/>
      <point x="713" y="840" type="qcurve" smooth="yes"/>
      <point x="449" y="840"/>
      <point x="205" y="672"/>
      <point x="205" y="492" type="qcurve" smooth="yes"/>
    </contour>
    <contour>
      <point x="1625" y="1156" type="line"/>
      <point x="305" y="1156" type="line"/>
      <point x="305" y="1302" type="line"/>
      <point x="1625" y="1302" type="line"/>
    </contour>
    <contour>
      <point x="1501" y="-266" type="line"/>
      <point x="47" y="-266" type="line"/>
      <point x="47" y="-128" type="line"/>
      <point x="1501" y="-128" type="line"/>
    </contour>
  </outline>
</glyph>
<glyph name="Euro" format="2">
  <advance width="1518"/>
  <unicode hex="20AC"/>
  <outline>
    <contour>
      <point x="1209" y="987" type="line"/>
      <point x="1213" y="827" type="line"/>
      <point x="22" y="827" type="line"/>
      <point x="22" y="987" type="line"/>
    </contour>
    <contour>
      <point x="1213" y="661" type="line"/>
      <point x="1213" y="502" type="line"/>
      <point x="22" y="502" type="line"/>
      <point x="22" y="661" type="line"/>
    </contour>
    <contour>
      <point x="203" y="544" type="qcurve" smooth="yes"/>
      <point x="203" y="903" type="line" smooth="yes"/>
      <point x="203" y="1183"/>
      <point x="579" y="1484"/>
      <point x="927" y="1484" type="qcurve" smooth="yes"/>
      <point x="1106" y="1484"/>
      <point x="1408" y="1408"/>
      <point x="1511" y="1337" type="qcurve"/>
      <point x="1442" y="1206" type="line"/>
      <point x="1330" y="1265"/>
      <point x="1079" y="1328"/>
      <point x="928" y="1328" type="qcurve" smooth="yes"/>
      <point x="688" y="1328"/>
      <point x="397" y="1109"/>
      <point x="397" y="906" type="qcurve" smooth="yes"/>
      <point x="397" y="541" type="line" smooth="yes"/>
      <point x="397" y="342"/>
      <point x="711" y="128"/>
      <point x="936" y="128" type="qcurve" smooth="yes"/>
      <point x="1090" y="128"/>
      <point x="1329" y="187"/>
      <point x="1447" y="242" type="qcurve"/>
      <point x="1525" y="126" type="line"/>
      <point x="1425" y="51"/>
      <point x="1124" y="-30"/>
      <point x="932" y="-30" type="qcurve" smooth="yes"/>
      <point x="581" y="-30"/>
      <point x="203" y="267"/>
    </contour>
  </outline>
</glyph>
<glyph name="hryvnia" format="2">
  <advance width="1374"/>
  <unicode hex="20B4"/>
  <outline>
    <contour>
      <point x="78" y="312" type="qcurve" smooth="yes"/>
      <point x="78" y="458"/>
      <point x="268" y="643"/>
      <point x="631" y="797" type="qcurve" smooth="yes"/>
      <point x="961" y="917"/>
      <point x="1090" y="1054"/>
      <point x="1090" y="1146" type="qcurve" smooth="yes"/>
      <point x="1090" y="1220"/>
      <point x="892" y="1328"/>
      <point x="706" y="1328" type="qcurve" smooth="yes"/>
      <point x="500" y="1328"/>
      <point x="291" y="1230"/>
      <point x="291" y="1172" type="qcurve" smooth="yes"/>
      <point x="290" y="1146" type="line"/>
      <point x="118" y="1146" type="line"/>
      <point x="119" y="1172" type="line" smooth="yes"/>
      <point x="125" y="1325"/>
      <point x="439" y="1486"/>
      <point x="706" y="1486" type="qcurve" smooth="yes"/>
      <point x="975" y="1486"/>
      <point x="1264" y="1305"/>
      <point x="1264" y="1158" type="qcurve" smooth="yes"/>
      <point x="1264" y="1043"/>
      <point x="1100" y="863"/>
      <point x="690" y="699" type="qcurve" smooth="yes"/>
      <point x="405" y="586"/>
      <point x="252" y="449"/>
      <point x="252" y="348" type="qcurve" smooth="yes"/>
      <point x="252" y="245"/>
      <point x="476" y="128"/>
      <point x="686" y="128" type="qcurve" smooth="yes"/>
      <point x="900" y="128"/>
      <point x="1134" y="240"/>
      <point x="1141" y="307" type="qcurve" smooth="yes"/>
      <point x="1142" y="326" type="line"/>
      <point x="1319" y="326" type="line"/>
      <point x="1318" y="307" type="line" smooth="yes"/>
      <point x="1305" y="143"/>
      <point x="954" y="-30"/>
      <point x="684" y="-30" type="qcurve" smooth="yes"/>
      <point x="393" y="-30"/>
      <point x="78" y="159"/>
    </contour>
    <contour>
      <point x="-10" y="831" type="line"/>
      <point x="-10" y="976" type="line"/>
      <point x="1383" y="976" type="line"/>
      <point x="1383" y="831" type="line"/>
    </contour>
    <contour>
      <point x="-10" y="511" type="line"/>
      <point x="-10" y="656" type="line"/>
      <point x="1383" y="656" type="line"/>
      <point x="1383" y="511" type="line"/>
    </contour>
  </outline>
</glyph>
<glyph name="rupeeIndian" format="2">
  <advance width="1404"/>
  <unicode hex="20B9"/>
  <outline>
    <contour>
      <point x="19" y="934" type="line"/>
      <point x="19" y="1089" type="line"/>
      <point x="1370" y="1089" type="line"/>
      <point x="1370" y="934" type="line"/>
    </contour>
    <contour>
      <point x="1186" y="0" type="line"/>
      <point x="1040" y="267" type="line" smooth="yes"/>
      <point x="946" y="439"/>
      <point x="702" y="566"/>
      <point x="512" y="574" type="qcurve" smooth="yes"/>
      <point x="19" y="579" type="line"/>
      <point x="19" y="732" type="line"/>
      <point x="687" y="732" type="line" smooth="yes"/>
      <point x="878" y="732"/>
      <point x="1033" y="885"/>
      <point x="1033" y="1019" type="qcurve" smooth="yes"/>
      <point x="1033" y="1145"/>
      <point x="872" y="1299"/>
      <point x="701" y="1299" type="qcurve" smooth="yes"/>
      <point x="19" y="1299" type="line"/>
      <point x="19" y="1456" type="line"/>
      <point x="1379" y="1456" type="line"/>
      <point x="1379" y="1300" type="line"/>
      <point x="1144" y="1300" type="line"/>
      <point x="1067" y="1308" type="line"/>
      <point x="1069" y="1300" type="line"/>
      <point x="1126" y="1272"/>
      <point x="1218" y="1112"/>
      <point x="1218" y="1019" type="qcurve" smooth="yes"/>
      <point x="1218" y="831"/>
      <point x="1041" y="663"/>
      <point x="855" y="642" type="qcurve"/>
      <point x="949" y="619"/>
      <point x="1142" y="461"/>
      <point x="1219" y="317" type="qcurve" smooth="yes"/>
      <point x="1389" y="0" type="line"/>
    </contour>
  </outline>
</glyph>
<glyph name="ruble" format="2">
  <advance width="1524"/>
  <unicode hex="20BD"/>
  <outline>
    <contour>
      <point x="1026" y="611" type="qcurve" smooth="yes"/>
      <point x="30" y="611" type="line"/>
      <point x="30" y="768" type="line"/>
      <point x="1026" y="768" type="line" smooth="yes"/>
      <point x="1189" y="768"/>
      <point x="1342" y="913"/>
      <point x="1342" y="1033" type="qcurve" smooth="yes"/>
      <point x="1342" y="1138"/>
      <point x="1195" y="1298"/>
      <point x="1026" y="1298" type="qcurve" smooth="yes"/>
      <point x="367" y="1298" type="line"/>
      <point x="367" y="0" type="line"/>
      <point x="188" y="0" type="line"/>
      <point x="188" y="1456" type="line"/>
      <point x="1026" y="1456" type="line" smooth="yes"/>
      <point x="1272" y="1456"/>
      <point x="1534" y="1217"/>
      <point x="1534" y="1035" type="qcurve" smooth="yes"/>
      <point x="1534" y="835"/>
      <point x="1272" y="611"/>
    </contour>
    <contour>
      <point x="1154" y="445" type="line"/>
      <point x="1154" y="286" type="line"/>
      <point x="30" y="286" type="line"/>
      <point x="30" y="445" type="line"/>
    </contour>
  </outline>
</glyph>
<glyph name="coloncurrency.rvrn" format="2">
  <advance width="2392"/>
  <guideline x="0" y="1570" angle="0" identifier="0DwZ2nfhdf"/>
  <outline>
    <contour>
      <point x="85" y="612" type="qcurve" smooth="yes"/>
      <point x="85" y="844" type="line" smooth="yes"/>
      <point x="85" y="1154"/>
      <point x="704" y="1486"/>
      <point x="1229" y="1486" type="qcurve" smooth="yes"/>
      <point x="1754" y="1486"/>
      <point x="2325" y="1233"/>
      <point x="2325" y="1040" type="qcurve" smooth="yes"/>
      <point x="2325" y="990" type="line"/>
      <point x="2143" y="990" type="line"/>
      <point x="2143" y="1041" type="line" smooth="yes"/>
      <point x="2143" y="1161"/>
      <point x="1692" y="1332"/>
      <point x="1231" y="1332" type="qcurve" smooth="yes"/>
      <point x="772" y="1332"/>
      <point x="271" y="1085"/>
      <point x="271" y="844" type="qcurve" smooth="yes"/>
      <point x="271" y="612" type="line" smooth="yes"/>
      <point x="271" y="369"/>
      <point x="788" y="114"/>
      <point x="1247" y="114" type="qcurve" smooth="yes"/>
      <point x="1708" y="114"/>
      <point x="2151" y="291"/>
      <point x="2151" y="426" type="qcurve" smooth="yes"/>
      <point x="2151" y="466" type="line"/>
      <point x="2337" y="466" type="line"/>
      <point x="2337" y="426" type="line" smooth="yes"/>
      <point x="2337" y="241"/>
      <point x="1768" y="-30"/>
      <point x="1242" y="-30" type="qcurve" smooth="yes"/>
      <point x="711" y="-30"/>
      <point x="85" y="308"/>
    </contour>
    <contour>
      <point x="863" y="113" type="line"/>
      <point x="854" y="45" type="line"/>
      <point x="860" y="18" type="line"/>
      <point x="840" y="-125" type="line"/>
      <point x="681" y="-125" type="line"/>
      <point x="713" y="101" type="line"/>
      <point x="727" y="127" type="line"/>
      <point x="728" y="134" type="line"/>
    </contour>
    <contour>
      <point x="1082" y="1570" type="line"/>
      <point x="1061" y="1426" type="line"/>
      <point x="1048" y="1405" type="line"/>
      <point x="1044" y="1380" type="line"/>
      <point x="906" y="1380" type="line"/>
      <point x="910" y="1407" type="line"/>
      <point x="903" y="1430" type="line"/>
      <point x="924" y="1570" type="line"/>
    </contour>
    <contour>
      <point x="1539" y="78" type="line"/>
      <point x="1536" y="40" type="line"/>
      <point x="1542" y="15" type="line"/>
      <point x="1522" y="-125" type="line"/>
      <point x="1363" y="-125" type="line"/>
      <point x="1382" y="12" type="line"/>
      <point x="1396" y="38" type="line"/>
      <point x="1402" y="78" type="line"/>
    </contour>
    <contour>
      <point x="1764" y="1570" type="line"/>
      <point x="1732" y="1374" type="line"/>
      <point x="1719" y="1351" type="line"/>
      <point x="1717" y="1341" type="line"/>
      <point x="1582" y="1341" type="line"/>
      <point x="1592" y="1411" type="line"/>
      <point x="1585" y="1431" type="line"/>
      <point x="1606" y="1570" type="line"/>
    </contour>
  </outline>
</glyph>
<glyph name="eight.prop" format="2">
  <advance width="1499"/>
  <outline>
    <contour>
      <point x="104" y="386" type="qcurve" smooth="yes"/>
      <point x="104" y="516"/>
      <point x="297" y="698"/>
      <point x="450" y="743" type="qcurve"/>
      <point x="450" y="747" type="line"/>
      <point x="333" y="790"/>
      <point x="167" y="967"/>
      <point x="167" y="1087" type="qcurve" smooth="yes"/>
      <point x="167" y="1267"/>
      <point x="504" y="1486"/>
      <point x="749" y="1486" type="qcurve" smooth="yes"/>
      <point x="995" y="1486"/>
      <point x="1332" y="1267"/>
      <point x="1332" y="1087" type="qcurve" smooth="yes"/>
      <point x="1332" y="967"/>
      <point x="1166" y="790"/>
      <point x="1049" y="747" type="qcurve"/>
      <point x="1049" y="743" type="line"/>
      <point x="1202" y="698"/>
      <point x="1395" y="516"/>
      <point x="1395" y="386" type="qcurve" smooth="yes"/>
      <point x="1395" y="188"/>
      <point x="1022" y="-30"/>
      <point x="749" y="-30" type="qcurve" smooth="yes"/>
      <point x="477" y="-30"/>
      <point x="104" y="188"/>
    </contour>
    <contour>
      <point x="292" y="396" type="qcurve" smooth="yes"/>
      <point x="292" y="276"/>
      <point x="542" y="128"/>
      <point x="750" y="128" type="qcurve" smooth="yes"/>
      <point x="958" y="128"/>
      <point x="1207" y="276"/>
      <point x="1207" y="396" type="qcurve" smooth="yes"/>
      <point x="1207" y="516"/>
      <point x="958" y="666"/>
      <point x="750" y="666" type="qcurve" smooth="yes"/>
      <point x="542" y="666"/>
      <point x="292" y="516"/>
    </contour>
    <contour>
      <point x="359" y="1077" type="qcurve" smooth="yes"/>
      <point x="359" y="967"/>
      <point x="574" y="824"/>
      <point x="750" y="824" type="qcurve" smooth="yes"/>
      <point x="926" y="824"/>
      <point x="1140" y="967"/>
      <point x="1140" y="1077" type="qcurve" smooth="yes"/>
      <point x="1140" y="1187"/>
      <point x="926" y="1328"/>
      <point x="750" y="1328" type="qcurve" smooth="yes"/>
      <point x="574" y="1328"/>
      <point x="359" y="1187"/>
    </contour>
  </outline>
</glyph>
<glyph name="five.prop" format="2">
  <advance width="1548"/>
  <outline>
    <contour>
      <point x="58" y="365" type="qcurve" smooth="yes"/>
      <point x="58" y="375" type="line"/>
      <point x="243" y="375" type="line"/>
      <point x="243" y="365" type="line" smooth="yes"/>
      <point x="243" y="244"/>
      <point x="519" y="128"/>
      <point x="827" y="128" type="qcurve" smooth="yes"/>
      <point x="1126" y="128"/>
      <point x="1425" y="299"/>
      <point x="1425" y="465" type="qcurve" smooth="yes"/>
      <point x="1425" y="625"/>
      <point x="1135" y="793"/>
      <point x="827" y="793" type="qcurve" smooth="yes"/>
      <point x="613" y="793"/>
      <point x="336" y="728"/>
      <point x="240" y="668" type="qcurve"/>
      <point x="108" y="730" type="line"/>
      <point x="198" y="1456" type="line"/>
      <point x="1521" y="1456" type="line"/>
      <point x="1521" y="1286" type="line"/>
      <point x="354" y="1286" type="line"/>
      <point x="296" y="876" type="line"/>
      <point x="379" y="906"/>
      <point x="658" y="952"/>
      <point x="867" y="952" type="qcurve" smooth="yes"/>
      <point x="1227" y="952"/>
      <point x="1615" y="701"/>
      <point x="1615" y="465" type="qcurve" smooth="yes"/>
      <point x="1615" y="235"/>
      <point x="1213" y="-30"/>
      <point x="827" y="-30" type="qcurve" smooth="yes"/>
      <point x="420" y="-30"/>
      <point x="58" y="195"/>
    </contour>
  </outline>
</glyph>
<glyph name="four.prop" format="2">
  <advance width="1664"/>
  <outline>
    <contour>
      <point x="1143" y="0" type="line"/>
      <point x="1143" y="398" type="line"/>
      <point x="1143" y="450" type="line"/>
      <point x="1143" y="1307" type="line"/>
      <point x="1151" y="1456" type="line"/>
      <point x="1323" y="1456" type="line"/>
      <point x="1323" y="0" type="line"/>
    </contour>
    <contour>
      <point x="-13" y="342" type="line"/>
      <point x="-13" y="468" type="line"/>
      <point x="1151" y="1456" type="line"/>
      <point x="1323" y="1456" type="line"/>
      <point x="1323" y="1149" type="line"/>
      <point x="1131" y="1149" type="line"/>
      <point x="206" y="500" type="line"/>
      <point x="1194" y="500" type="line"/>
      <point x="1271" y="500" type="line"/>
      <point x="1660" y="500" type="line"/>
      <point x="1660" y="342" type="line"/>
    </contour>
  </outline>
</glyph>
<glyph name="naira.rvrn" format="2">
  <advance width="1667"/>
  <outline>
    <contour>
      <point x="1562" y="1456" type="line"/>
      <point x="1562" y="0" type="line"/>
      <point x="1384" y="0" type="line"/>
      <point x="347" y="1142" type="line"/>
      <point x="245" y="1253" type="line"/>
      <point x="233" y="1253" type="line"/>
      <point x="246" y="1125" type="line"/>
      <point x="246" y="0" type="line"/>
      <point x="100" y="0" type="line"/>
      <point x="100" y="1456" type="line"/>
      <point x="282" y="1456" type="line"/>
      <point x="1295" y="347" type="line"/>
      <point x="1407" y="227" type="line"/>
      <point x="1423" y="230" type="line"/>
      <point x="1412" y="351" type="line"/>
      <point x="1412" y="1456" type="line"/>
    </contour>
    <contour>
      <point x="1464" y="672" type="line"/>
      <point x="1480" y="672" type="line"/>
      <point x="1480" y="677" type="line"/>
      <point x="1675" y="679" type="line"/>
      <point x="1675" y="542" type="line"/>
      <point x="1480" y="540" type="line"/>
      <point x="1480" y="550" type="line"/>
      <point x="1464" y="550" type="line"/>
    </contour>
    <contour>
      <point x="-8" y="540" type="line"/>
      <point x="-8" y="677" type="line"/>
      <point x="174" y="677" type="line"/>
      <point x="174" y="672" type="line"/>
      <point x="189" y="672" type="line"/>
      <point x="189" y="550" type="line"/>
      <point x="174" y="550" type="line"/>
      <point x="174" y="540" type="line"/>
    </contour>
    <contour>
      <point x="1464" y="977" type="line"/>
      <point x="1480" y="977" type="line"/>
      <point x="1480" y="987" type="line"/>
      <point x="1672" y="989" type="line"/>
      <point x="1672" y="852" type="line"/>
      <point x="1480" y="850" type="line"/>
      <point x="1480" y="855" type="line"/>
      <point x="1464" y="855" type="line"/>
    </contour>
    <contour>
      <point x="-8" y="850" type="line"/>
      <point x="-8" y="987" type="line"/>
      <point x="174" y="987" type="line"/>
      <point x="174" y="977" type="line"/>
      <point x="189" y="977" type="line"/>
      <point x="189" y="855" type="line"/>
      <point x="174" y="855" type="line"/>
      <point x="174" y="850" type="line"/>
    </contour>
  </outline>
</glyph>
<glyph name="nine.prop" format="2">
  <advance width="1507"/>
  <outline>
    <contour>
      <point x="60" y="990" type="qcurve" smooth="yes"/>
      <point x="60" y="1210"/>
      <point x="450" y="1486"/>
      <point x="722" y="1486" type="qcurve" smooth="yes"/>
      <point x="1046" y="1486"/>
      <point x="1427" y="1182"/>
      <point x="1427" y="842" type="qcurve" smooth="yes"/>
      <point x="1427" y="812" type="line" smooth="yes"/>
      <point x="1427" y="432"/>
      <point x="855" y="-30"/>
      <point x="300" y="-30" type="qcurve" smooth="yes"/>
      <point x="271" y="-30" type="line"/>
      <point x="271" y="128" type="line"/>
      <point x="303" y="128" type="line" smooth="yes"/>
      <point x="751" y="128"/>
      <point x="1239" y="452"/>
      <point x="1239" y="802" type="qcurve" smooth="yes"/>
      <point x="1239" y="852" type="line" smooth="yes"/>
      <point x="1239" y="1112"/>
      <point x="945" y="1328"/>
      <point x="721" y="1328" type="qcurve" smooth="yes"/>
      <point x="497" y="1328"/>
      <point x="250" y="1152"/>
      <point x="250" y="992" type="qcurve" smooth="yes"/>
      <point x="250" y="832"/>
      <point x="497" y="658"/>
      <point x="721" y="658" type="qcurve" smooth="yes"/>
      <point x="929" y="658"/>
      <point x="1245" y="832"/>
      <point x="1245" y="992" type="qcurve"/>
      <point x="1315" y="992" type="line"/>
      <point x="1315" y="772"/>
      <point x="975" y="500"/>
      <point x="690" y="500" type="qcurve" smooth="yes"/>
      <point x="407" y="500"/>
      <point x="60" y="770"/>
    </contour>
  </outline>
</glyph>
<glyph name="six.prop" format="2">
  <advance width="1507"/>
  <outline>
    <contour>
      <point x="80" y="614" type="qcurve" smooth="yes"/>
      <point x="80" y="644" type="line" smooth="yes"/>
      <point x="80" y="1024"/>
      <point x="652" y="1486"/>
      <point x="1207" y="1486" type="qcurve" smooth="yes"/>
      <point x="1236" y="1486" type="line"/>
      <point x="1236" y="1328" type="line"/>
      <point x="1204" y="1328" type="line" smooth="yes"/>
      <point x="756" y="1328"/>
      <point x="268" y="1004"/>
      <point x="268" y="654" type="qcurve" smooth="yes"/>
      <point x="268" y="604" type="line" smooth="yes"/>
      <point x="268" y="344"/>
      <point x="562" y="128"/>
      <point x="786" y="128" type="qcurve" smooth="yes"/>
      <point x="1010" y="128"/>
      <point x="1257" y="304"/>
      <point x="1257" y="464" type="qcurve" smooth="yes"/>
      <point x="1257" y="624"/>
      <point x="1010" y="798"/>
      <point x="786" y="798" type="qcurve" smooth="yes"/>
      <point x="578" y="798"/>
      <point x="262" y="624"/>
      <point x="262" y="464" type="qcurve"/>
      <point x="192" y="464" type="line"/>
      <point x="192" y="684"/>
      <point x="532" y="956"/>
      <point x="817" y="956" type="qcurve" smooth="yes"/>
      <point x="1100" y="956"/>
      <point x="1447" y="684"/>
      <point x="1447" y="464" type="qcurve" smooth="yes"/>
      <point x="1447" y="244"/>
      <point x="1057" y="-30"/>
      <point x="785" y="-30" type="qcurve" smooth="yes"/>
      <point x="461" y="-30"/>
      <point x="80" y="274"/>
    </contour>
  </outline>
</glyph>
<glyph name="two.prop" format="2">
  <advance width="1326"/>
  <outline>
    <contour>
      <point x="26" y="0" type="line"/>
      <point x="26" y="140" type="line"/>
      <point x="744" y="699" type="line" smooth="yes"/>
      <point x="901" y="821"/>
      <point x="1080" y="980"/>
      <point x="1080" y="1080" type="qcurve" smooth="yes"/>
      <point x="1080" y="1180"/>
      <point x="864" y="1328"/>
      <point x="672" y="1328" type="qcurve" smooth="yes"/>
      <point x="480" y="1328"/>
      <point x="216" y="1170"/>
      <point x="216" y="1030" type="qcurve" smooth="yes"/>
      <point x="216" y="1020" type="line"/>
      <point x="26" y="1020" type="line"/>
      <point x="26" y="1030" type="line" smooth="yes"/>
      <point x="26" y="1230"/>
      <point x="398" y="1486"/>
      <point x="668" y="1486" type="qcurve" smooth="yes"/>
      <point x="938" y="1486"/>
      <point x="1270" y="1250"/>
      <point x="1270" y="1090" type="qcurve" smooth="yes"/>
      <point x="1270" y="948"/>
      <point x="1054" y="716"/>
      <point x="894" y="600" type="qcurve" smooth="yes"/>
      <point x="281" y="156" type="line"/>
      <point x="1324" y="156" type="line"/>
      <point x="1324" y="0" type="line"/>
    </contour>
  </outline>
</glyph>
<glyph name="won.rvrn" format="2">
  <advance width="2625"/>
  <outline>
    <contour>
      <point x="729" y="-10" type="line"/>
      <point x="115" y="1456" type="line"/>
      <point x="286" y="1456" type="line"/>
      <point x="754" y="348" type="line"/>
      <point x="809" y="198" type="line"/>
      <point x="815" y="198" type="line"/>
      <point x="859" y="348" type="line" smooth="yes"/>
      <point x="1238" y="1456" type="line"/>
      <point x="1428" y="1456" type="line"/>
      <point x="1847" y="348" type="line"/>
      <point x="1895" y="198" type="line"/>
      <point x="1901" y="198" type="line"/>
      <point x="1951" y="348" type="line" smooth="yes"/>
      <point x="2379" y="1456" type="line"/>
      <point x="2539" y="1456" type="line"/>
      <point x="1987" y="-10" type="line"/>
      <point x="1819" y="-10" type="line"/>
      <point x="1390" y="1130" type="line"/>
      <point x="1340" y="1278" type="line"/>
      <point x="1334" y="1278" type="line"/>
      <point x="1285" y="1130" type="line" smooth="yes"/>
      <point x="897" y="-10" type="line"/>
    </contour>
    <contour>
      <point x="2245" y="1007" type="line"/>
      <point x="2255" y="1007" type="line"/>
      <point x="2255" y="1017" type="line"/>
      <point x="2577" y="1019" type="line"/>
      <point x="2577" y="882" type="line"/>
      <point x="2255" y="880" type="line"/>
      <point x="2255" y="885" type="line"/>
      <point x="2245" y="885" type="line"/>
    </contour>
    <contour>
      <point x="48" y="880" type="line"/>
      <point x="48" y="1017" type="line"/>
      <point x="403" y="1017" type="line"/>
      <point x="403" y="1007" type="line"/>
      <point x="413" y="1007" type="line"/>
      <point x="413" y="885" type="line"/>
      <point x="403" y="885" type="line"/>
      <point x="403" y="880" type="line"/>
    </contour>
    <contour>
      <point x="2106" y="652" type="line"/>
      <point x="2116" y="652" type="line"/>
      <point x="2116" y="657" type="line"/>
      <point x="2478" y="659" type="line"/>
      <point x="2478" y="522" type="line"/>
      <point x="2116" y="520" type="line"/>
      <point x="2116" y="530" type="line"/>
      <point x="2106" y="530" type="line"/>
    </contour>
    <contour>
      <point x="149" y="520" type="line"/>
      <point x="149" y="657" type="line"/>
      <point x="564" y="657" type="line"/>
      <point x="564" y="652" type="line"/>
      <point x="586" y="652" type="line"/>
      <point x="586" y="530" type="line"/>
      <point x="564" y="530" type="line"/>
      <point x="564" y="520" type="line"/>
    </contour>
  </outline>
</glyph>
